<mxfile host="app.diagrams.net" modified="2021-11-25T09:22:03.639Z" agent="5.0 (Windows NT 10.0; Win64; x64) AppleWebKit/537.36 (KHTML, like Gecko) Chrome/96.0.4664.45 Safari/537.36" etag="VXmKQJByNmcse5NJ34al" version="15.8.6" type="github">
  <diagram id="9rRj9bmVvk-_Fa7LdTc0" name="Page-1">
    <mxGraphModel dx="3220" dy="1330" grid="1" gridSize="10" guides="1" tooltips="1" connect="1" arrows="1" fold="1" page="1" pageScale="1" pageWidth="850" pageHeight="1100" math="0" shadow="0">
      <root>
        <mxCell id="0" />
        <mxCell id="1" parent="0" />
        <mxCell id="nJmIJmIaaingxwnrtcb6-3" style="edgeStyle=orthogonalEdgeStyle;rounded=0;orthogonalLoop=1;jettySize=auto;html=1;strokeWidth=1;endArrow=none;endFill=0;fontSize=18;" parent="1" source="I_9JFQb6DJG9Cx3_rZML-1" edge="1">
          <mxGeometry relative="1" as="geometry">
            <mxPoint x="320" y="250" as="targetPoint" />
          </mxGeometry>
        </mxCell>
        <mxCell id="I_9JFQb6DJG9Cx3_rZML-1" value="Mobile device with camera" style="outlineConnect=0;dashed=0;verticalLabelPosition=bottom;verticalAlign=top;align=center;html=1;shape=mxgraph.aws3.mobile_client;fillColor=#D2D3D3;gradientColor=none;fontSize=18;" parent="1" vertex="1">
          <mxGeometry x="120" y="140" width="40" height="63" as="geometry" />
        </mxCell>
        <mxCell id="I_9JFQb6DJG9Cx3_rZML-5" style="edgeStyle=orthogonalEdgeStyle;rounded=0;orthogonalLoop=1;jettySize=auto;html=1;fontSize=18;" parent="1" source="I_9JFQb6DJG9Cx3_rZML-2" target="I_9JFQb6DJG9Cx3_rZML-4" edge="1">
          <mxGeometry relative="1" as="geometry" />
        </mxCell>
        <mxCell id="I_9JFQb6DJG9Cx3_rZML-2" value="Scanner" style="fontColor=#000000;verticalAlign=top;verticalLabelPosition=bottom;labelPosition=center;align=center;html=1;outlineConnect=0;fillColor=#CCCCCC;strokeColor=#6881B3;gradientColor=none;gradientDirection=north;strokeWidth=2;shape=mxgraph.networks.scanner;fontSize=18;" parent="1" vertex="1">
          <mxGeometry x="100" y="275" width="100" height="75" as="geometry" />
        </mxCell>
        <mxCell id="I_9JFQb6DJG9Cx3_rZML-9" style="edgeStyle=orthogonalEdgeStyle;rounded=0;orthogonalLoop=1;jettySize=auto;html=1;fontSize=18;" parent="1" source="I_9JFQb6DJG9Cx3_rZML-3" target="I_9JFQb6DJG9Cx3_rZML-8" edge="1">
          <mxGeometry relative="1" as="geometry">
            <Array as="points">
              <mxPoint x="760" y="360" />
            </Array>
          </mxGeometry>
        </mxCell>
        <mxCell id="I_9JFQb6DJG9Cx3_rZML-3" value="Answer sheet database server" style="aspect=fixed;perimeter=ellipsePerimeter;html=1;align=center;shadow=0;dashed=0;spacingTop=3;image;image=img/lib/active_directory/database_server.svg;fontSize=18;" parent="1" vertex="1">
          <mxGeometry x="500" y="320" width="82" height="100" as="geometry" />
        </mxCell>
        <mxCell id="nJmIJmIaaingxwnrtcb6-2" style="edgeStyle=orthogonalEdgeStyle;rounded=0;orthogonalLoop=1;jettySize=auto;html=1;fontSize=18;" parent="1" source="I_9JFQb6DJG9Cx3_rZML-4" edge="1">
          <mxGeometry relative="1" as="geometry">
            <mxPoint x="540" y="325" as="targetPoint" />
            <Array as="points">
              <mxPoint x="320" y="313" />
              <mxPoint x="320" y="240" />
              <mxPoint x="541" y="240" />
              <mxPoint x="541" y="325" />
            </Array>
          </mxGeometry>
        </mxCell>
        <mxCell id="I_9JFQb6DJG9Cx3_rZML-4" value="Computer&lt;br style=&quot;font-size: 18px;&quot;&gt;" style="points=[];aspect=fixed;html=1;align=center;shadow=0;dashed=0;image;image=img/lib/allied_telesis/computer_and_terminals/Personal_Computer.svg;fontSize=18;" parent="1" vertex="1">
          <mxGeometry x="240" y="267.5" width="66.41" height="90" as="geometry" />
        </mxCell>
        <mxCell id="I_9JFQb6DJG9Cx3_rZML-18" style="edgeStyle=orthogonalEdgeStyle;rounded=0;orthogonalLoop=1;jettySize=auto;html=1;entryX=1;entryY=0.5;entryDx=0;entryDy=0;entryPerimeter=0;fontSize=18;" parent="1" source="I_9JFQb6DJG9Cx3_rZML-8" target="I_9JFQb6DJG9Cx3_rZML-10" edge="1">
          <mxGeometry relative="1" as="geometry">
            <Array as="points">
              <mxPoint x="820" y="240" />
              <mxPoint x="820" y="619" />
            </Array>
          </mxGeometry>
        </mxCell>
        <mxCell id="I_9JFQb6DJG9Cx3_rZML-8" value="Question segmentation model" style="sketch=0;outlineConnect=0;fontColor=#232F3E;gradientColor=none;strokeColor=#ffffff;fillColor=#232F3E;dashed=0;verticalLabelPosition=middle;verticalAlign=bottom;align=center;html=1;whiteSpace=wrap;fontSize=18;fontStyle=1;spacing=3;shape=mxgraph.aws4.productIcon;prIcon=mxgraph.aws4.deep_learning_amis;" parent="1" vertex="1">
          <mxGeometry x="720" y="177.5" width="80" height="125" as="geometry" />
        </mxCell>
        <mxCell id="I_9JFQb6DJG9Cx3_rZML-20" style="edgeStyle=orthogonalEdgeStyle;rounded=0;orthogonalLoop=1;jettySize=auto;html=1;exitX=0;exitY=0.5;exitDx=0;exitDy=0;exitPerimeter=0;fontSize=18;" parent="1" source="I_9JFQb6DJG9Cx3_rZML-10" edge="1">
          <mxGeometry relative="1" as="geometry">
            <mxPoint x="530" y="440" as="targetPoint" />
            <Array as="points">
              <mxPoint x="530" y="620" />
              <mxPoint x="530" y="440" />
            </Array>
          </mxGeometry>
        </mxCell>
        <mxCell id="I_9JFQb6DJG9Cx3_rZML-10" value="&lt;font style=&quot;font-size: 18px;&quot;&gt;Text separation model&lt;/font&gt;" style="sketch=0;points=[[0,0,0],[0.25,0,0],[0.5,0,0],[0.75,0,0],[1,0,0],[0,1,0],[0.25,1,0],[0.5,1,0],[0.75,1,0],[1,1,0],[0,0.25,0],[0,0.5,0],[0,0.75,0],[1,0.25,0],[1,0.5,0],[1,0.75,0]];outlineConnect=0;fontColor=#232F3E;gradientColor=#4AB29A;gradientDirection=north;fillColor=#116D5B;strokeColor=#ffffff;dashed=0;verticalLabelPosition=bottom;verticalAlign=top;align=center;html=1;fontSize=18;fontStyle=0;aspect=fixed;shape=mxgraph.aws4.resourceIcon;resIcon=mxgraph.aws4.neuron_ml_sdk;" parent="1" vertex="1">
          <mxGeometry x="710" y="581" width="78" height="78" as="geometry" />
        </mxCell>
        <mxCell id="I_9JFQb6DJG9Cx3_rZML-14" style="edgeStyle=orthogonalEdgeStyle;rounded=0;orthogonalLoop=1;jettySize=auto;html=1;fontSize=18;" parent="1" source="I_9JFQb6DJG9Cx3_rZML-13" edge="1">
          <mxGeometry relative="1" as="geometry">
            <mxPoint x="-190" y="255" as="targetPoint" />
          </mxGeometry>
        </mxCell>
        <mxCell id="I_9JFQb6DJG9Cx3_rZML-13" value="Students" style="verticalLabelPosition=bottom;sketch=0;html=1;fillColor=#282828;strokeColor=none;verticalAlign=top;pointerEvents=1;align=center;shape=mxgraph.cisco_safe.people_places_things_icons.icon2;fontSize=18;" parent="1" vertex="1">
          <mxGeometry x="-390" y="234" width="50" height="41" as="geometry" />
        </mxCell>
        <mxCell id="I_9JFQb6DJG9Cx3_rZML-16" style="edgeStyle=orthogonalEdgeStyle;rounded=0;orthogonalLoop=1;jettySize=auto;html=1;exitX=1;exitY=0.5;exitDx=0;exitDy=0;entryX=0;entryY=0.5;entryDx=0;entryDy=0;entryPerimeter=0;fontSize=18;" parent="1" source="I_9JFQb6DJG9Cx3_rZML-15" target="I_9JFQb6DJG9Cx3_rZML-1" edge="1">
          <mxGeometry relative="1" as="geometry">
            <Array as="points">
              <mxPoint x="10" y="255" />
              <mxPoint x="10" y="172" />
            </Array>
          </mxGeometry>
        </mxCell>
        <mxCell id="I_9JFQb6DJG9Cx3_rZML-17" style="edgeStyle=orthogonalEdgeStyle;rounded=0;orthogonalLoop=1;jettySize=auto;html=1;fontSize=18;" parent="1" source="I_9JFQb6DJG9Cx3_rZML-15" target="I_9JFQb6DJG9Cx3_rZML-2" edge="1">
          <mxGeometry relative="1" as="geometry">
            <Array as="points">
              <mxPoint x="10" y="255" />
              <mxPoint x="10" y="313" />
            </Array>
          </mxGeometry>
        </mxCell>
        <mxCell id="I_9JFQb6DJG9Cx3_rZML-15" value="Handwritten answersheets" style="shape=image;html=1;verticalAlign=top;verticalLabelPosition=bottom;labelBackgroundColor=#ffffff;imageAspect=0;aspect=fixed;image=https://cdn2.iconfinder.com/data/icons/bitsies/128/EditDocument-128.png;fontSize=18;" parent="1" vertex="1">
          <mxGeometry x="-190" y="214.5" width="80" height="80" as="geometry" />
        </mxCell>
        <mxCell id="I_9JFQb6DJG9Cx3_rZML-39" style="edgeStyle=orthogonalEdgeStyle;rounded=0;orthogonalLoop=1;jettySize=auto;html=1;fontSize=18;entryX=1;entryY=0.5;entryDx=0;entryDy=0;entryPerimeter=0;exitX=0;exitY=0.5;exitDx=0;exitDy=0;" parent="1" source="I_9JFQb6DJG9Cx3_rZML-3" target="I_9JFQb6DJG9Cx3_rZML-40" edge="1">
          <mxGeometry relative="1" as="geometry">
            <mxPoint x="390" y="960" as="targetPoint" />
            <mxPoint x="425" y="530" as="sourcePoint" />
            <Array as="points">
              <mxPoint x="342" y="370" />
              <mxPoint x="342" y="620" />
            </Array>
          </mxGeometry>
        </mxCell>
        <mxCell id="I_9JFQb6DJG9Cx3_rZML-43" style="edgeStyle=orthogonalEdgeStyle;rounded=0;orthogonalLoop=1;jettySize=auto;html=1;fontSize=18;" parent="1" source="I_9JFQb6DJG9Cx3_rZML-40" target="I_9JFQb6DJG9Cx3_rZML-42" edge="1">
          <mxGeometry relative="1" as="geometry">
            <Array as="points">
              <mxPoint x="219" y="620" />
              <mxPoint x="-30" y="620" />
            </Array>
          </mxGeometry>
        </mxCell>
        <mxCell id="I_9JFQb6DJG9Cx3_rZML-40" value="&lt;div style=&quot;text-align: justify; font-size: 18px;&quot;&gt;&lt;span style=&quot;line-height: 1.3; font-size: 18px;&quot;&gt;Optical Character Recognition (OCR) model&lt;/span&gt;&lt;/div&gt;" style="sketch=0;points=[[0,0,0],[0.25,0,0],[0.5,0,0],[0.75,0,0],[1,0,0],[0,1,0],[0.25,1,0],[0.5,1,0],[0.75,1,0],[1,1,0],[0,0.25,0],[0,0.5,0],[0,0.75,0],[1,0.25,0],[1,0.5,0],[1,0.75,0]];outlineConnect=0;fontColor=#232F3E;gradientColor=#4AB29A;gradientDirection=north;fillColor=#116D5B;strokeColor=#ffffff;dashed=0;verticalLabelPosition=bottom;verticalAlign=top;align=center;html=1;fontSize=18;fontStyle=0;aspect=fixed;shape=mxgraph.aws4.resourceIcon;resIcon=mxgraph.aws4.comprehend;" parent="1" vertex="1">
          <mxGeometry x="180" y="581" width="78" height="78" as="geometry" />
        </mxCell>
        <mxCell id="nJmIJmIaaingxwnrtcb6-1" style="edgeStyle=orthogonalEdgeStyle;rounded=0;orthogonalLoop=1;jettySize=auto;html=1;fontSize=18;" parent="1" source="I_9JFQb6DJG9Cx3_rZML-42" target="I_9JFQb6DJG9Cx3_rZML-50" edge="1">
          <mxGeometry relative="1" as="geometry">
            <Array as="points">
              <mxPoint x="-150" y="630" />
              <mxPoint x="-150" y="630" />
            </Array>
          </mxGeometry>
        </mxCell>
        <mxCell id="I_9JFQb6DJG9Cx3_rZML-42" value="Natural Language Processing model" style="sketch=0;outlineConnect=0;fontColor=#232F3E;gradientColor=none;strokeColor=#ffffff;fillColor=#232F3E;dashed=0;verticalLabelPosition=middle;verticalAlign=bottom;align=center;html=1;whiteSpace=wrap;fontSize=18;fontStyle=1;spacing=3;shape=mxgraph.aws4.productIcon;prIcon=mxgraph.aws4.comprehend;" parent="1" vertex="1">
          <mxGeometry x="-80" y="580" width="80" height="170" as="geometry" />
        </mxCell>
        <mxCell id="I_9JFQb6DJG9Cx3_rZML-50" value="University marks server" style="image;html=1;image=img/lib/clip_art/computers/Server_Rack_128x128.png;fontSize=18;" parent="1" vertex="1">
          <mxGeometry x="-350" y="581" width="85" height="98" as="geometry" />
        </mxCell>
        <mxCell id="I_9JFQb6DJG9Cx3_rZML-51" value="Scanned answersheets" style="shape=image;html=1;verticalAlign=top;verticalLabelPosition=bottom;labelBackgroundColor=#ffffff;imageAspect=0;aspect=fixed;image=https://cdn4.iconfinder.com/data/icons/general-office/91/General_Office_03-128.png;fontSize=18;" parent="1" vertex="1">
          <mxGeometry x="400" y="119" width="84" height="84" as="geometry" />
        </mxCell>
        <mxCell id="I_9JFQb6DJG9Cx3_rZML-52" value="Segmented questions" style="shape=image;html=1;verticalAlign=top;verticalLabelPosition=bottom;labelBackgroundColor=#ffffff;imageAspect=0;aspect=fixed;image=https://cdn1.iconfinder.com/data/icons/office-icons-17/512/ilustracoes_04-14-128.png;fontSize=18;" parent="1" vertex="1">
          <mxGeometry x="880" y="370" width="70" height="70" as="geometry" />
        </mxCell>
        <mxCell id="I_9JFQb6DJG9Cx3_rZML-53" value="" style="shape=image;html=1;verticalAlign=top;verticalLabelPosition=bottom;labelBackgroundColor=#ffffff;imageAspect=0;aspect=fixed;image=https://cdn4.iconfinder.com/data/icons/48-bubbles/48/12.File-128.png;fontSize=18;" parent="1" vertex="1">
          <mxGeometry x="582" y="559" width="48" height="48" as="geometry" />
        </mxCell>
        <mxCell id="I_9JFQb6DJG9Cx3_rZML-55" value="" style="shape=image;html=1;verticalAlign=top;verticalLabelPosition=bottom;labelBackgroundColor=#ffffff;imageAspect=0;aspect=fixed;image=https://cdn1.iconfinder.com/data/icons/KDE_Crystal_Diamond_2.5_Classical_Mod/128x128/mimetypes/vectorgfx.png;fontSize=18;" parent="1" vertex="1">
          <mxGeometry x="630" y="550" width="57" height="57" as="geometry" />
        </mxCell>
        <mxCell id="nJmIJmIaaingxwnrtcb6-6" value="Full answer sheets" style="text;html=1;align=center;verticalAlign=middle;resizable=0;points=[];autosize=1;strokeColor=none;fillColor=none;fontSize=18;" parent="1" vertex="1">
          <mxGeometry x="580" y="315" width="170" height="30" as="geometry" />
        </mxCell>
        <mxCell id="-Mbcjv1xfIVzPSo58Ows-2" value="&lt;h1 style=&quot;font-size: 18px;&quot;&gt;&lt;span style=&quot;font-weight: normal; font-size: 18px;&quot;&gt;Separated text and diagrams from questions.&lt;/span&gt;&lt;/h1&gt;" style="text;html=1;strokeColor=none;fillColor=none;spacing=5;spacingTop=-20;whiteSpace=wrap;overflow=hidden;rounded=0;fontSize=18;" vertex="1" parent="1">
          <mxGeometry x="560" y="470" width="140" height="80" as="geometry" />
        </mxCell>
      </root>
    </mxGraphModel>
  </diagram>
</mxfile>
